<?xml version="1.0" encoding="utf-8"?>
<!-- Generator: Adobe Illustrator 16.0.0, SVG Export Plug-In . SVG Version: 6.00 Build 0)  -->
<!DOCTYPE svg PUBLIC "-//W3C//DTD SVG 1.1//EN" "http://www.w3.org/Graphics/SVG/1.1/DTD/svg11.dtd">
<svg version="1.1" xmlns="http://www.w3.org/2000/svg" xmlns:xlink="http://www.w3.org/1999/xlink" x="0px" y="0px"
	 width="25px" height="25px" viewBox="0 0 141.422 141.421" enable-background="new 0 0 141.422 141.421"
	 xml:space="preserve">
<g id="Layer_1">
	<polygon fill="#4D69B1" points="141.422,88.388 123.744,70.71 106.066,53.032 88.389,35.355 70.711,53.033 53.033,70.711
		35.355,53.033 53.033,35.355 70.711,17.678 53.033,0 35.355,17.678 17.678,0 0,17.678 17.678,35.355 0,53.033 17.678,70.711
		35.355,88.389 53.033,106.065 70.711,88.388 88.389,70.71 106.066,88.388 88.389,106.065 70.711,123.743 88.389,141.421
		106.066,123.743 123.744,141.421 141.422,123.743 123.744,106.065 	"/>
</g>
</svg>